<svg xmlns="http://www.w3.org/2000/svg" width="256" height="256" viewBox="0 0 256 256">
  <defs>
    <linearGradient id="g" x1="0" y1="0" x2="1" y2="1">
      <stop offset="0" stop-color="#f59e0b"/>
      <stop offset="1" stop-color="#7c3aed"/>
    </linearGradient>
  </defs>
  <rect x="16" y="16" width="224" height="224" rx="56" fill="url(#g)"/>
  <g fill="#fff">
    <path d="M80 180c-8 0-14-6-14-14V90c0-8 6-14 14-14h40c22 0 40 18 40 40s-18 40-40 40H96v10c0 8-8 14-16 14zm16-48h24c13 0 24-11 24-24s-11-24-24-24H96v48z"/>
    <circle cx="176" cy="176" r="20"/>
  </g>
</svg>
